<?xml version="1.0" encoding="utf-8"?>
<svg version="1.1" id="Fire Emblem Awakening" xmlns="http://www.w3.org/2000/svg" xmlns:xlink="http://www.w3.org/1999/xlink" x="0px" y="0px"
	 viewBox="0 0 1979.8 368.5" style="enable-background:new 0 0 1979.8 368.5;" xml:space="preserve">
<path d="M306,23.6L344.4,42L327.3,0H111.7l43.2,23.6c0,0-18.3,66.9-34.8,126.2C92.9,247.6,56.5,320.8,0,368.5
	c33.2-11.8,124.2-56.4,171.2-194.8c9.9-29,11-33.4,11-33.4l93.3-0.1l9.9,24.4l16.2-62.6l-21,16.2h-91.9l24.8-94.7L306,23.6L306,23.6
	z M382.7,161.7l39-149.2L438.2,0h-73.3l16.4,12.5l-39,149.2L326,174.1h73.2L382.7,161.7z M1145.1,161.7l-16.2,12.5h72l-16.4-12.5
	l38.9-149.2L1239.6,0h-57.3l-84.5,125L1077,0l-64.4,0l16.3,12.5l-38.9,149.1l-16.4,12.5h51.5l-16.4-12.5l30.9-118.1l24.1,158.8
	l114.3-163.1L1145.1,161.7z M1885.2,161.7l-16.3,12.5h72.1l-16.4-12.5l38.9-149.2L1979.8,0h-57.3l-84.4,125l-21-125l-64.4,0
	l16.3,12.5l-38.9,149.1l-16.4,12.5h51.5l-16.4-12.5l30.9-118.1l24,158.8L1918,39.2L1885.2,161.7z M1398.4,174.1h137.8l11.9-36.2
	l-39.1,23.7h-54.2l39-149.2L1514,0h-76.6l16.3,12.5l-39,149.2L1398.4,174.1z M595.8,174.1h141l11.7-36.2l-39.1,23.7h-56.9l18.3-69.9
	h30.2l8.7,20.4L722.1,64l-18.2,16h-30.2l17.6-67.5h31.7l37.9,28.2L749.2,0L634.9,0l16.3,12.5l-39,149.3
	C612.2,161.8,596,174.1,595.8,174.1 M967.1,137.9L928,161.7h-56.9l18.2-69.9h31.2l10.8,20.4l9.4-48.1l-18.2,16h-30.2
	c0,0,9.9-39.3,17.6-67.5h31.7l37.9,28.2L967.8,0H853.5l16.3,12.5l-39,149.3c0,0-16.2,12.3-16.4,12.3h140.9L967.1,137.9z
	 M1709.2,137.9l-39.1,23.7h-56.9l18.2-69.9h31.2l10.8,20.4l9.4-48.1l-18.2,16h-30.2c0,0,9.9-39.3,17.6-67.5h31.7l38,28.2L1710,0
	h-114.3l16.3,12.5l-39,149.3c0,0-16.2,12.3-16.3,12.3h140.9L1709.2,137.9z M432.2,161.4l-16.5,12.7h69.1l-12.4-13l38.8-148.6h16.9
	c23.9,0,33,14.5,25.8,35.3c-7.6,22.1-38.3,39.4-54.8,42.9c0,0,14,46.6,33.4,69.4c13,15.3,40.3,19.7,57.4,14
	c-6.6-3.5-16.8-12.1-26.7-24.7c-8.3-10.5-24.9-42.2-28.3-56.1c18.1-3.4,53.4-22.4,60.2-45C604.1,19.1,582.1,0,531.8,0h-76.9
	l16.3,12.5L432.2,161.4z M1238.4,161.7l-16.3,12.5h79.4c44.3,0,83.7-11.2,93.7-49.3c6.6-25.3-22.6-42.7-49.5-44.6v-0.4
	c27.5-4.2,51.4-21.5,56.2-36.1c8.4-25.7-14.4-43.7-65-43.7h-75.8l16.3,12.5L1238.4,161.7z M1317.8,12.5h16c23.8,0,34,10.7,27.5,30.5
	c-6.6,20-43.2,37.9-53,40.3v0.5c24.9,2.6,51.3,10.2,46.4,35.3c-5.3,27.4-28.7,42.5-53.9,42.5h-22L1317.8,12.5z M1079.1,201.4
	l-3.7,4.1h714.3l-0.6-4.1H1079.1z M1819,205.5h147.9l1.3-4.1h-145.5L1819,205.5z M1050.8,201.4H214.5l-1.4,4.1h838.3L1050.8,201.4z
	 M685.5,238.8l-57,97h26.1l10.4-19.5h37.6l2.5,19.5h29.4l-17.2-97L685.5,238.8L685.5,238.8z M674.7,298.5l21.4-40.7h0.4l3.8,40.7
	H674.7z M834,315.9l-1.6-47.5h-27.3l-21.5,47.8l-0.8-47.8h-25l6,67.4h26.8l22.5-47l2.3,47h27.3l34.5-67.4h-21.9L834,315.9z
	 M931.3,266c-11.8,0-22.6,3.1-28.9,8.4c-6,5.3-7.1,11-7.9,14.1h23.4c1.4-7.7,6.3-10.2,10.8-10.2c7.4,0,6.9,6.7,5.3,14
	c-27.9-1.2-45.8,5.5-49.6,23.9c-2.5,12,2.7,21,18.7,21c13.4,0,19.8-6.4,23.7-11c-0.8,4.3-1.2,7.3-1.2,9.7h23.4
	c0.3-6.7,0.4-8.1,1.3-12.9l6.5-31.4c1.6-7.2,1.3-13.5-2.1-17.7C949.5,266.8,937.2,266,931.3,266 M927.1,316.6
	c-3.5,5.4-8.3,6.5-10.9,6.5c-5.9,0-8.1-4.2-7-9.2c1.9-9.7,12-9.8,22.4-9.9C931.1,306.8,929.9,312.3,927.1,316.6 M1034.8,268.4
	l-28.5,29.8l12.1-59.4h-24l-19.9,97h24l7.7-37.5l15.6,37.5h29.4l-17.4-38.9l28.1-28.5H1034.8z M1114.9,266
	c-24.1,0-37.9,14.7-42.4,37.2c-4.7,22.3,5.2,34.1,28,34.1c16.9,0,33.6-6.6,38.9-23.5h-22.8c-2,6.3-6.8,9.8-13.3,9.8
	c-12.5,0-9.8-12.7-9.1-16.4h46.9c2.5-11.8,3-18.3,1.3-24.1C1139.9,273.6,1133.1,266,1114.9,266 M1120.9,293.5h-23.6
	c0.9-3.2,4-14.1,14.7-14.1C1122.7,279.4,1121.4,289.6,1120.9,293.5 M1218.5,266.9c-13.5,0-20.2,6.7-24.2,11.8l1.9-10.4h-24.5
	l-2.4,14.4l-10.9,53h24.3l8-38.7c0.5-2.4,3-14.2,13.9-14.2c10,0,8.1,9.5,7,14.2l-7.9,38.7h24.5l8.5-40.8
	C1238.6,285.7,1242.5,266.9,1218.5,266.9 M1271.1,257.1h25l3.6-18h-25L1271.1,257.1z M1255.1,335.8h24.5l13.9-67.4H1269
	L1255.1,335.8z M1368.2,266.9c-13.5,0-20.2,6.7-24.2,11.8l2-10.4h-24.5l-2.4,14.4l-10.9,53h24.3l7.9-38.7c0.5-2.4,3-14.2,13.9-14.2
	c10,0,8.1,9.5,7,14.2l-7.9,38.7h24.5l8.5-40.8C1388.3,285.7,1392.1,266.9,1368.2,266.9 M1463.3,278.2c-2.1-5.4-6.7-11.4-19.3-11.4
	c-19.9,0-32.4,15.2-36.2,33.4c-5.1,24.6,8.3,33.4,22.1,33.4c3.8,0,14.6-0.7,23.4-10.9l-1.8,8.9c-1.6,7.2-4.2,16.4-16.4,16.4
	c-3.5,0-6-1-7.4-2.4c-1.6-1.5-1.9-3.6-1.6-6.2h-23c-0.5,3.5-1.7,9.8,2.8,15c6.1,6.8,18.2,7.9,25.7,7.9c13.4,0,22-3.4,28.5-7.5
	c10.2-6.4,13.7-16,15.4-24l12.9-62.8h-23L1463.3,278.2z M1457.7,299.7c-0.9,4.8-4.3,19.1-16,19.1c-10.8,0-10-11.7-8.5-18.8
	c2.4-11.3,8.3-19.1,16.5-19.1C1461.6,280.9,1458.5,296.2,1457.7,299.7"/>
</svg>